<svg xmlns="http://www.w3.org/2000/svg" viewBox="0 0 880 576" width="880" height="576" font-family="'Geist Mono',ui-monospace,monospace" role="img" aria-label="Inside your extension, the author-facing xxxConfig helper declares config onto BaseModel.extensions; on the framework side getXxxConfig feeds capability getters, xxxExtension registers tools and a mixin via register(ctx), and createXxxService is an optional factory. The ToolRegistry reads BaseModel.extensions and registers the extension."><rect x="0.5" y="0.5" width="879" height="575" rx="14" fill="#0c0c12" stroke="#23232f"></rect><text x="28" y="32" font-size="11" fill="#6a6a78" letter-spacing="0.08em" xml:space="preserve">API EXTENSIONS · WIRING</text><rect x="24" y="56" width="832" height="348" rx="12" fill="#101019" stroke="#2a2a38"></rect><circle cx="44" cy="82" r="4" fill="#a78bfa"></circle><text x="56" y="86" font-size="12" fill="#a78bfa" letter-spacing="0.12em" xml:space="preserve">YOUR EXTENSION</text><line x1="322" y1="92" x2="322" y2="392" stroke="#383848" stroke-width="1" stroke-dasharray="3 5"></line><text x="48" y="104" font-size="10" fill="#6a6a78" letter-spacing="0.1em" xml:space="preserve">AUTHOR-FACING</text><text x="344" y="104" font-size="10" fill="#6a6a78" letter-spacing="0.1em" xml:space="preserve">FRAMEWORK-FACING</text><rect x="48" y="120" width="250" height="56" rx="9" fill="#14141e" stroke="#2a2a38"></rect><rect x="48" y="120" width="3" height="56" rx="1.5" fill="#a78bfa"></rect><text x="68" y="146" font-size="12" fill="#a78bfa" xml:space="preserve">xxxConfig({…})</text><text x="68" y="163" font-size="10" fill="#6a6a78" xml:space="preserve">typed helper</text><rect x="344" y="118" width="320" height="48" rx="9" fill="#14141e" stroke="#2a2a38"></rect><text x="360" y="140" font-size="12" fill="#e7e7ee" xml:space="preserve">getXxxConfig(model)</text><text x="360" y="157" font-size="10" fill="#6a6a78" xml:space="preserve">typed reader · structural</text><line x1="420" y1="166" x2="420" y2="186" stroke="#4a4a5e" stroke-width="1.4"></line><path d="M417.6634899461481 180.47363403598268 L420 186 L422.3365100538519 180.47363403598268 Z" fill="#4a4a5e"></path><rect x="370" y="188" width="260" height="46" rx="9" fill="#14141e" stroke="#4a4a5e"></rect><text x="386" y="209" font-size="12" fill="#e7e7ee" xml:space="preserve">capability getters</text><text x="386" y="226" font-size="10" fill="#6a6a78" xml:space="preserve">filter consumers</text><rect x="344" y="250" width="320" height="42" rx="9" fill="#14141e" stroke="#2a2a38"></rect><text x="360" y="275" font-size="12" fill="#e7e7ee" xml:space="preserve">xxxExtension(): ApiExtension</text><line x1="420" y1="292" x2="420" y2="306" stroke="#4a4a5e" stroke-width="1.4"></line><path d="M417.6634899461481 300.4736340359827 L420 306 L422.3365100538519 300.4736340359827 Z" fill="#4a4a5e"></path><rect x="370" y="308" width="260" height="38" rx="9" fill="#14141e" stroke="#2a2a38"></rect><text x="386" y="331" font-size="11.5" fill="#7ee2c1" xml:space="preserve">register(ctx) → tools + mixin</text><rect x="344" y="356" width="320" height="42" rx="9" fill="#14141e" stroke="#2a2a38"></rect><text x="360" y="375" font-size="12" fill="#9a9aa8" xml:space="preserve">createXxxService(apiClient, …)</text><text x="360" y="392" font-size="10" fill="#6a6a78" xml:space="preserve">optional factory</text><rect x="48" y="452" width="280" height="80" rx="9" fill="#14141e" stroke="#2a2a38"></rect><rect x="48" y="452" width="3" height="80" rx="1.5" fill="#f0c674"></rect><text x="68" y="490" font-size="12.5" fill="#f0c674" xml:space="preserve">BaseModel.extensions</text><text x="68" y="507" font-size="10" fill="#6a6a78" xml:space="preserve">{ 'xxx': …config… }</text><rect x="560" y="452" width="296" height="96" rx="9" fill="#14141e" stroke="#2a2a38"></rect><rect x="560" y="452" width="3" height="96" rx="1.5" fill="#7c5cff"></rect><text x="580" y="498" font-size="12.5" fill="#a78bfa" xml:space="preserve">ToolRegistry({ … })</text><text x="580" y="515" font-size="10" fill="#6a6a78" xml:space="preserve">apiExtensions: { 'xxx': xxxExt() }</text><line x1="173" y1="176" x2="173" y2="452" stroke="#a78bfa" stroke-width="1.4"></line><path d="M170.6634899461481 446.4736340359827 L173 452 L175.3365100538519 446.4736340359827 Z" fill="#a78bfa"></path><text x="210" y="330" font-size="10" fill="#6a6a78" text-anchor="middle" xml:space="preserve">declares</text><line x1="560" y1="494" x2="332" y2="494" stroke="#f0c674" stroke-width="1.4"></line><path d="M337.5263659640173 491.6634899461481 L332 494 L337.5263659640173 496.3365100538519 Z" fill="#f0c674"></path><text x="446" y="484" font-size="10" fill="#6a6a78" text-anchor="middle" xml:space="preserve">reads</text><line x1="664" y1="452" x2="478" y2="294" stroke="#7c5cff" stroke-width="1.4"></line><path d="M483.7245538964981 295.7970761492181 L478 294 L480.69919158625777 299.35857861570355 Z" fill="#7c5cff"></path><text x="648" y="432" font-size="10" fill="#6a6a78" text-anchor="middle" xml:space="preserve">registers</text></svg>