<svg xmlns="http://www.w3.org/2000/svg" viewBox="0 0 880 372" width="880" height="372" font-family="'Geist Mono',ui-monospace,monospace" role="img" aria-label="API JSON parses (parse) and HTML form input feeds back (toInput) to one normalized Internal value. From the internal value, serialize emits API JSON, describe emits a humanized LLM-facing summary like ISBN-13: 978-0-13-235088-4, validate returns ok, null or an error, and format emits a DOM node for the browser."><rect x="0.5" y="0.5" width="879" height="371" rx="14" fill="#0c0c12" stroke="#23232f"></rect><text x="28" y="32" font-size="11" fill="#6a6a78" letter-spacing="0.08em" xml:space="preserve">ATTRIBUTE KIND · CONVERSION HUB</text><rect x="70" y="56" width="300" height="52" rx="9" fill="#14141e" stroke="#8aa6ff" stroke-opacity="0.5"></rect><text x="220" y="78" font-size="12" fill="#e7e7ee" text-anchor="middle" xml:space="preserve">API JSON</text><text x="220" y="94" font-size="11" fill="#9a9aa8" text-anchor="middle" xml:space="preserve">{ isbn: "9780132350884" }</text><rect x="510" y="56" width="300" height="52" rx="9" fill="#14141e" stroke="#f0c674" stroke-opacity="0.5"></rect><text x="660" y="78" font-size="12" fill="#e7e7ee" text-anchor="middle" xml:space="preserve">HTML form input</text><text x="660" y="94" font-size="11" fill="#9a9aa8" text-anchor="middle" xml:space="preserve">&lt;input value="978…"&gt;</text><rect x="190" y="170" width="500" height="58" rx="9" fill="rgba(126,226,193,0.05)" stroke="#7ee2c1" stroke-opacity="0.6"></rect><text x="440" y="192" font-size="13" fill="#e7e7ee" text-anchor="middle" xml:space="preserve">Internal value</text><text x="440" y="208" font-size="11" fill="#7ee2c1" text-anchor="middle" xml:space="preserve">"9780132350884"  ·  normalized, hyphens out</text><line x1="220" y1="108" x2="220" y2="170" stroke="#4a4a5e" stroke-width="1.5"></line><path d="M216 162 L220 172 L224 162 Z" fill="#8aa6ff"></path><text x="230" y="142" font-size="10.5" fill="#6a6a78" xml:space="preserve">parse(api)</text><line x1="660" y1="170" x2="660" y2="108" stroke="#4a4a5e" stroke-width="1.5"></line><path d="M656 116 L660 106 L664 116 Z" fill="#f0c674"></path><text x="548" y="142" font-size="10.5" fill="#6a6a78" xml:space="preserve">toInput(internal)</text><line x1="90" y1="228" x2="90" y2="290" stroke="#4a4a5e" stroke-width="1.4"></line><path d="M86 282 L90 292 L94 282 Z" fill="#8aa6ff"></path><text x="90" y="250" font-size="10.5" fill="#8aa6ff" text-anchor="middle" xml:space="preserve">serialize</text><rect x="0" y="296" width="180" height="52" rx="9" fill="#14141e" stroke="#2a2a38"></rect><rect x="0" y="296" width="3" height="52" rx="1.5" fill="#8aa6ff"></rect><text x="90" y="316" font-size="11" fill="#c7c7d1" text-anchor="middle" xml:space="preserve">API JSON</text><text x="90" y="334" font-size="9.5" fill="#6a6a78" text-anchor="middle" xml:space="preserve">{ isbn: "…" }</text><line x1="290" y1="228" x2="290" y2="290" stroke="#4a4a5e" stroke-width="1.4"></line><path d="M286 282 L290 292 L294 282 Z" fill="#a78bfa"></path><text x="290" y="250" font-size="10.5" fill="#a78bfa" text-anchor="middle" xml:space="preserve">describe</text><rect x="175" y="296" width="230" height="52" rx="9" fill="#14141e" stroke="#2a2a38"></rect><rect x="175" y="296" width="3" height="52" rx="1.5" fill="#a78bfa"></rect><text x="290" y="316" font-size="11" fill="#c7c7d1" text-anchor="middle" xml:space="preserve">"ISBN-13: 978-0-13-235088-4"</text><text x="290" y="334" font-size="9.5" fill="#6a6a78" text-anchor="middle" xml:space="preserve">LLM-facing · humanized</text><line x1="540" y1="228" x2="540" y2="290" stroke="#4a4a5e" stroke-width="1.4"></line><path d="M536 282 L540 292 L544 282 Z" fill="#f0c674"></path><text x="540" y="250" font-size="10.5" fill="#f0c674" text-anchor="middle" xml:space="preserve">validate</text><rect x="455" y="296" width="170" height="38" rx="9" fill="#14141e" stroke="#2a2a38"></rect><rect x="455" y="296" width="3" height="38" rx="1.5" fill="#f0c674"></rect><text x="540" y="320" font-size="11" fill="#c7c7d1" text-anchor="middle" xml:space="preserve">"ok" | null | error</text><line x1="724" y1="228" x2="724" y2="290" stroke="#4a4a5e" stroke-width="1.4"></line><path d="M720 282 L724 292 L728 282 Z" fill="#7ee2c1"></path><text x="724" y="250" font-size="10.5" fill="#7ee2c1" text-anchor="middle" xml:space="preserve">format</text><rect x="639" y="296" width="170" height="52" rx="9" fill="#14141e" stroke="#2a2a38"></rect><rect x="639" y="296" width="3" height="52" rx="1.5" fill="#7ee2c1"></rect><text x="724" y="316" font-size="11" fill="#c7c7d1" text-anchor="middle" xml:space="preserve">&lt;code&gt;9780132350884&lt;/code&gt;</text><text x="724" y="334" font-size="9.5" fill="#6a6a78" text-anchor="middle" xml:space="preserve">DOM node · browser only</text></svg>