<svg xmlns="http://www.w3.org/2000/svg" viewBox="0 0 860 400" width="860" height="400" font-family="'Geist Mono',ui-monospace,monospace" role="img" aria-label="A decision tree from &quot;What does your app need?&quot;. Static HTML only leads to Pure UI (getHtml, resourceUri). Server logic only leads to Tool-backed (toolName, toolInputSchema, handleToolCall). Server logic plus UI leads to Resource + tool — the most common — populating all of getHtml, resourceUri, toolName, toolInputSchema and handleToolCall."><rect x="0.5" y="0.5" width="859" height="399" rx="14" fill="#0c0c12" stroke="#23232f"></rect><text x="28" y="32" font-size="11" fill="#6a6a78" letter-spacing="0.08em" xml:space="preserve">CUSTOM APP · CATEGORY DECISION</text><rect x="280" y="48" width="300" height="34" rx="9" fill="#1c1c28" stroke="#2a2a38"></rect><text x="430" y="70" font-size="12.5" fill="#e7e7ee" text-anchor="middle" xml:space="preserve">What does your app need?</text><line x1="430" y1="82" x2="430" y2="100" stroke="#4a4a5e" stroke-width="1.4"></line><line x1="160" y1="100" x2="700" y2="100" stroke="#4a4a5e" stroke-width="1.4"></line><line x1="160" y1="100" x2="160" y2="120" stroke="#4a4a5e" stroke-width="1.4"></line><path d="M156 116 L160 124 L164 116 Z" fill="#9a9aa8"></path><line x1="430" y1="100" x2="430" y2="120" stroke="#4a4a5e" stroke-width="1.4"></line><path d="M426 116 L430 124 L434 116 Z" fill="#f0c674"></path><line x1="700" y1="100" x2="700" y2="120" stroke="#4a4a5e" stroke-width="1.4"></line><path d="M696 116 L700 124 L704 116 Z" fill="#7c5cff"></path><text x="160" y="138" font-size="12" fill="#c7c7d1" text-anchor="middle" xml:space="preserve">Static HTML only</text><text x="160" y="156" font-size="10.5" fill="#6a6a78" text-anchor="middle" xml:space="preserve">(self-contained)</text><line x1="160" y1="166" x2="160" y2="190" stroke="#4a4a5e" stroke-width="1.5"></line><path d="M155 184 L160 192 L165 184 Z" fill="#9a9aa8"></path><rect x="45" y="196" width="230" height="102" rx="10" fill="#14141e" stroke="#2a2a38" stroke-opacity="1"></rect><rect x="45" y="196" width="230" height="38" rx="10" fill="#1c1c28"></rect><rect x="45" y="222" width="230" height="12" fill="#1c1c28"></rect><text x="160" y="220" font-size="13" fill="#9a9aa8" text-anchor="middle" xml:space="preserve">Pure UI</text><circle cx="67" cy="255" r="2.5" fill="#9a9aa8"></circle><text x="79" y="258" font-size="11.5" fill="#c7c7d1" xml:space="preserve">getHtml</text><circle cx="67" cy="277" r="2.5" fill="#9a9aa8"></circle><text x="79" y="280" font-size="11.5" fill="#c7c7d1" xml:space="preserve">resourceUri</text><text x="430" y="138" font-size="12" fill="#c7c7d1" text-anchor="middle" xml:space="preserve">Server logic only</text><text x="430" y="156" font-size="10.5" fill="#6a6a78" text-anchor="middle" xml:space="preserve">(no iframe)</text><line x1="430" y1="166" x2="430" y2="190" stroke="#4a4a5e" stroke-width="1.5"></line><path d="M425 184 L430 192 L435 184 Z" fill="#f0c674"></path><rect x="315" y="196" width="230" height="124" rx="10" fill="#14141e" stroke="#2a2a38" stroke-opacity="1"></rect><rect x="315" y="196" width="230" height="38" rx="10" fill="#1c1c28"></rect><rect x="315" y="222" width="230" height="12" fill="#1c1c28"></rect><text x="430" y="220" font-size="13" fill="#f0c674" text-anchor="middle" xml:space="preserve">Tool-backed</text><circle cx="337" cy="255" r="2.5" fill="#f0c674"></circle><text x="349" y="258" font-size="11.5" fill="#c7c7d1" xml:space="preserve">toolName</text><circle cx="337" cy="277" r="2.5" fill="#f0c674"></circle><text x="349" y="280" font-size="11.5" fill="#c7c7d1" xml:space="preserve">toolInputSchema</text><circle cx="337" cy="299" r="2.5" fill="#f0c674"></circle><text x="349" y="302" font-size="11.5" fill="#c7c7d1" xml:space="preserve">handleToolCall</text><text x="700" y="138" font-size="12" fill="#c7c7d1" text-anchor="middle" xml:space="preserve">Server logic + UI</text><text x="700" y="156" font-size="10.5" fill="#6a6a78" text-anchor="middle" xml:space="preserve">(the standard widget)</text><line x1="700" y1="166" x2="700" y2="190" stroke="#4a4a5e" stroke-width="1.5"></line><path d="M695 184 L700 192 L705 184 Z" fill="#7c5cff"></path><rect x="585" y="196" width="230" height="190" rx="10" fill="#14141e" stroke="#7c5cff" stroke-opacity="0.5"></rect><rect x="585" y="196" width="230" height="38" rx="10" fill="#1c1c28"></rect><rect x="585" y="222" width="230" height="12" fill="#1c1c28"></rect><text x="700" y="220" font-size="13" fill="#7c5cff" text-anchor="middle" xml:space="preserve">Resource + tool</text><rect x="648" y="244" width="104" height="20" rx="10" fill="#7c5cff" fill-opacity="0.14" stroke="#7c5cff" stroke-opacity="0.4"></rect><text x="700" y="258" font-size="9.5" fill="#a78bfa" text-anchor="middle" xml:space="preserve">most common</text><circle cx="607" cy="277" r="2.5" fill="#7c5cff"></circle><text x="619" y="280" font-size="11.5" fill="#c7c7d1" xml:space="preserve">getHtml</text><circle cx="607" cy="299" r="2.5" fill="#7c5cff"></circle><text x="619" y="302" font-size="11.5" fill="#c7c7d1" xml:space="preserve">resourceUri</text><circle cx="607" cy="321" r="2.5" fill="#7c5cff"></circle><text x="619" y="324" font-size="11.5" fill="#c7c7d1" xml:space="preserve">toolName</text><circle cx="607" cy="343" r="2.5" fill="#7c5cff"></circle><text x="619" y="346" font-size="11.5" fill="#c7c7d1" xml:space="preserve">toolInputSchema</text><circle cx="607" cy="365" r="2.5" fill="#7c5cff"></circle><text x="619" y="368" font-size="11.5" fill="#c7c7d1" xml:space="preserve">handleToolCall</text></svg>