<svg xmlns="http://www.w3.org/2000/svg" viewBox="0 0 880 570" width="880" height="570" font-family="'Geist Mono',ui-monospace,monospace" role="img" aria-label="Eight intents routed to extension points: add a non-CRUD verb to a model uses customActionsExtension (ApiExtension); add an unrelated MCP tool uses ToolRegistry plus a BaseTool subclass; add an HTTP route uses HttpExtension; stage a write for human review uses ToolFlowExtension; add a summary lens uses a SummaryStrategy via ApiExtension; swap payload or association shape uses a BaseConvention override; stub the API for tests uses a DataLayer override; touch many surfaces uses the multi-surface recipe."><rect x="0.5" y="0.5" width="879" height="569" rx="14" fill="#0c0c12" stroke="#23232f"></rect><text x="28" y="32" font-size="11" fill="#6a6a78" letter-spacing="0.08em" xml:space="preserve">EXTENSION RECIPES · ROUTING INDEX</text><rect x="40" y="48" width="150" height="30" rx="8" fill="#1c1c28" stroke="#2a2a38"></rect><text x="64" y="68" font-size="12.5" fill="#e7e7ee" xml:space="preserve">I want to…</text><line x1="56" y1="78" x2="56" y2="520" stroke="#383848" stroke-width="1.4"></line><line x1="56" y1="114" x2="78" y2="114" stroke="#383848" stroke-width="1.4"></line><text x="90" y="112" font-size="12.5" fill="#e7e7ee" xml:space="preserve">Add a non-CRUD verb to a model</text><text x="90" y="129" font-size="10.5" fill="#6a6a78" xml:space="preserve">publish, archive, status changes</text><rect x="500" y="98" width="336" height="34" rx="8" fill="#14141e" stroke="#2a2a38"></rect><rect x="500" y="98" width="3" height="34" rx="1.5" fill="#a78bfa"></rect><text x="516" y="119" font-size="11.5" fill="#a78bfa" xml:space="preserve">→ customActionsExtension</text><rect x="733.2" y="106" width="92.80000000000001" height="18" rx="9" fill="#0c0c12" stroke="#383848"></rect><text x="779.6" y="119" font-size="9.5" fill="#6a6a78" text-anchor="middle" xml:space="preserve">ApiExtension</text><line x1="302" y1="112" x2="492" y2="112" stroke="#2a2a38" stroke-width="1" stroke-dasharray="2 4"></line><path d="M492 108 l8 4 -8 4 z" fill="#a78bfa" fill-opacity="0.6"></path><line x1="56" y1="172" x2="78" y2="172" stroke="#383848" stroke-width="1.4"></line><text x="90" y="170" font-size="12.5" fill="#e7e7ee" xml:space="preserve">Add an MCP tool unrelated to a model</text><rect x="500" y="156" width="336" height="34" rx="8" fill="#14141e" stroke="#2a2a38"></rect><rect x="500" y="156" width="3" height="34" rx="1.5" fill="#8aa6ff"></rect><text x="516" y="177" font-size="11.5" fill="#8aa6ff" xml:space="preserve">→ ToolRegistry + BaseTool subclass</text><rect x="784.4" y="164" width="41.6" height="18" rx="9" fill="#0c0c12" stroke="#383848"></rect><text x="805.2" y="177" font-size="9.5" fill="#6a6a78" text-anchor="middle" xml:space="preserve">tool</text><line x1="341.6" y1="170" x2="492" y2="170" stroke="#2a2a38" stroke-width="1" stroke-dasharray="2 4"></line><path d="M492 166 l8 4 -8 4 z" fill="#8aa6ff" fill-opacity="0.6"></path><line x1="56" y1="230" x2="78" y2="230" stroke="#383848" stroke-width="1.4"></line><text x="90" y="228" font-size="12.5" fill="#e7e7ee" xml:space="preserve">Add an HTTP route</text><text x="90" y="245" font-size="10.5" fill="#6a6a78" xml:space="preserve">webhook, health, custom OAuth</text><rect x="500" y="214" width="336" height="34" rx="8" fill="#14141e" stroke="#2a2a38"></rect><rect x="500" y="214" width="3" height="34" rx="1.5" fill="#8aa6ff"></rect><text x="516" y="235" font-size="11.5" fill="#8aa6ff" xml:space="preserve">→ HttpExtension</text><rect x="752.4" y="222" width="73.6" height="18" rx="9" fill="#0c0c12" stroke="#383848"></rect><text x="789.2" y="235" font-size="9.5" fill="#6a6a78" text-anchor="middle" xml:space="preserve">transport</text><line x1="216.2" y1="228" x2="492" y2="228" stroke="#2a2a38" stroke-width="1" stroke-dasharray="2 4"></line><path d="M492 224 l8 4 -8 4 z" fill="#8aa6ff" fill-opacity="0.6"></path><line x1="56" y1="288" x2="78" y2="288" stroke="#383848" stroke-width="1.4"></line><text x="90" y="286" font-size="12.5" fill="#e7e7ee" xml:space="preserve">Stage a write for human review</text><text x="90" y="303" font-size="10.5" fill="#6a6a78" xml:space="preserve">collect → review → submit</text><rect x="500" y="272" width="336" height="34" rx="8" fill="#14141e" stroke="#2a2a38"></rect><rect x="500" y="272" width="3" height="34" rx="1.5" fill="#f0c674"></rect><text x="516" y="293" font-size="11.5" fill="#f0c674" xml:space="preserve">→ ToolFlowExtension</text><rect x="714" y="280" width="112" height="18" rx="9" fill="#0c0c12" stroke="#383848"></rect><text x="770" y="293" font-size="9.5" fill="#6a6a78" text-anchor="middle" xml:space="preserve">centerOfControl</text><line x1="302" y1="286" x2="492" y2="286" stroke="#2a2a38" stroke-width="1" stroke-dasharray="2 4"></line><path d="M492 282 l8 4 -8 4 z" fill="#f0c674" fill-opacity="0.6"></path><line x1="56" y1="346" x2="78" y2="346" stroke="#383848" stroke-width="1.4"></line><text x="90" y="344" font-size="12.5" fill="#e7e7ee" xml:space="preserve">Add a new summary lens</text><rect x="500" y="330" width="336" height="34" rx="8" fill="#14141e" stroke="#2a2a38"></rect><rect x="500" y="330" width="3" height="34" rx="1.5" fill="#7ee2c1"></rect><text x="516" y="351" font-size="11.5" fill="#7ee2c1" xml:space="preserve">→ SummaryStrategy</text><rect x="733.2" y="338" width="92.80000000000001" height="18" rx="9" fill="#0c0c12" stroke="#383848"></rect><text x="779.6" y="351" font-size="9.5" fill="#6a6a78" text-anchor="middle" xml:space="preserve">ApiExtension</text><line x1="249.2" y1="344" x2="492" y2="344" stroke="#2a2a38" stroke-width="1" stroke-dasharray="2 4"></line><path d="M492 340 l8 4 -8 4 z" fill="#7ee2c1" fill-opacity="0.6"></path><line x1="56" y1="404" x2="78" y2="404" stroke="#383848" stroke-width="1.4"></line><text x="90" y="402" font-size="12.5" fill="#e7e7ee" xml:space="preserve">Swap payload / association shape</text><text x="90" y="419" font-size="10.5" fill="#6a6a78" xml:space="preserve">for one model</text><rect x="500" y="388" width="336" height="34" rx="8" fill="#14141e" stroke="#2a2a38"></rect><rect x="500" y="388" width="3" height="34" rx="1.5" fill="#a78bfa"></rect><text x="516" y="409" font-size="11.5" fill="#a78bfa" xml:space="preserve">→ BaseConvention override</text><rect x="746" y="396" width="80" height="18" rx="9" fill="#0c0c12" stroke="#383848"></rect><text x="786" y="409" font-size="9.5" fill="#6a6a78" text-anchor="middle" xml:space="preserve">convention</text><line x1="315.2" y1="402" x2="492" y2="402" stroke="#2a2a38" stroke-width="1" stroke-dasharray="2 4"></line><path d="M492 398 l8 4 -8 4 z" fill="#a78bfa" fill-opacity="0.6"></path><line x1="56" y1="462" x2="78" y2="462" stroke="#383848" stroke-width="1.4"></line><text x="90" y="460" font-size="12.5" fill="#e7e7ee" xml:space="preserve">Stub the API for integration tests</text><rect x="500" y="446" width="336" height="34" rx="8" fill="#14141e" stroke="#2a2a38"></rect><rect x="500" y="446" width="3" height="34" rx="1.5" fill="#7ee2c1"></rect><text x="516" y="467" font-size="11.5" fill="#7ee2c1" xml:space="preserve">→ DataLayer override</text><rect x="752.4" y="454" width="73.6" height="18" rx="9" fill="#0c0c12" stroke="#383848"></rect><text x="789.2" y="467" font-size="9.5" fill="#6a6a78" text-anchor="middle" xml:space="preserve">in-memory</text><line x1="328.4" y1="460" x2="492" y2="460" stroke="#2a2a38" stroke-width="1" stroke-dasharray="2 4"></line><path d="M492 456 l8 4 -8 4 z" fill="#7ee2c1" fill-opacity="0.6"></path><line x1="56" y1="520" x2="78" y2="520" stroke="#383848" stroke-width="1.4"></line><text x="90" y="518" font-size="12.5" fill="#e7e7ee" xml:space="preserve">Touch many surfaces at once</text><text x="90" y="535" font-size="10.5" fill="#6a6a78" xml:space="preserve">Stripe-style integration</text><rect x="500" y="504" width="336" height="34" rx="8" fill="#14141e" stroke="#2a2a38"></rect><rect x="500" y="504" width="3" height="34" rx="1.5" fill="#ff8a9b"></rect><text x="516" y="525" font-size="11.5" fill="#ff8a9b" xml:space="preserve">→ Multi-surface recipe</text><rect x="752.4" y="512" width="73.6" height="18" rx="9" fill="#0c0c12" stroke="#383848"></rect><text x="789.2" y="525" font-size="9.5" fill="#6a6a78" text-anchor="middle" xml:space="preserve">composite</text><line x1="282.2" y1="518" x2="492" y2="518" stroke="#2a2a38" stroke-width="1" stroke-dasharray="2 4"></line><path d="M492 514 l8 4 -8 4 z" fill="#ff8a9b" fill-opacity="0.6"></path></svg>