<svg xmlns="http://www.w3.org/2000/svg" viewBox="0 0 860 470" width="860" height="470" font-family="'Geist Mono',ui-monospace,monospace" role="img" aria-label="MCP client sandboxed iframe with inbound notifications and outbound callServerTool calls, connected by MCP protocol to the MCP server pairing the create_book tool with a ui:// resource."><rect x="0.5" y="0.5" width="859" height="469" rx="14" fill="#0c0c12" stroke="#23232f"></rect><text x="28" y="32" font-size="11" fill="#6a6a78" letter-spacing="0.08em" xml:space="preserve">MCP APPS · ARCHITECTURE OVERVIEW</text><rect x="24" y="56" width="812" height="190" rx="12" fill="#101019" stroke="#2a2a38"></rect><circle cx="44" cy="82" r="4" fill="#8aa6ff"></circle><text x="56" y="86" font-size="12" fill="#aebfff" letter-spacing="0.12em" xml:space="preserve">MCP CLIENT</text><text x="174" y="86" font-size="11" fill="#6a6a78" xml:space="preserve">Claude Desktop · COC</text><rect x="44" y="92" width="772" height="134" rx="9" fill="#14141e" stroke="#2a2a38"></rect><text x="64" y="118" font-size="12" fill="#e7e7ee" xml:space="preserve">Sandboxed iframe</text><text x="214" y="118" font-size="10.5" fill="#6a6a78" xml:space="preserve">MCP App HTML / JS / CSS</text><line x1="64" y1="138" x2="796" y2="138" stroke="#2a2a38" stroke-width="1" stroke-dasharray="2 4"></line><text x="64" y="164" font-size="10.5" fill="#9a9aa8" letter-spacing="0.06em" xml:space="preserve">INBOUND · client → app</text><path d="M76 180 l9 -4.5 v9 z" fill="#8aa6ff"></path><line x1="76" y1="184" x2="91" y2="184" stroke="#8aa6ff" stroke-width="1.4"></line><text x="100" y="188" font-size="11.5" fill="#e7e7ee" xml:space="preserve">ontoolinput</text><text x="185" y="188" font-size="11" fill="#6a6a78" xml:space="preserve">· prefill data</text><path d="M76 198 l9 -4.5 v9 z" fill="#8aa6ff"></path><line x1="76" y1="202" x2="91" y2="202" stroke="#8aa6ff" stroke-width="1.4"></line><text x="100" y="206" font-size="11.5" fill="#e7e7ee" xml:space="preserve">ontoolresult</text><text x="192" y="206" font-size="11" fill="#6a6a78" xml:space="preserve">· schema + defaults</text><path d="M76 216 l9 -4.5 v9 z" fill="#8aa6ff"></path><line x1="76" y1="220" x2="91" y2="220" stroke="#8aa6ff" stroke-width="1.4"></line><text x="100" y="224" font-size="11.5" fill="#e7e7ee" xml:space="preserve">onhostcontextchanged</text><text x="248" y="224" font-size="11" fill="#6a6a78" xml:space="preserve">· theme</text><line x1="452" y1="150" x2="452" y2="232" stroke="#2a2a38" stroke-width="1" stroke-dasharray="2 4"></line><text x="472" y="164" font-size="10.5" fill="#9a9aa8" letter-spacing="0.06em" xml:space="preserve">OUTBOUND · app → server</text><line x1="472" y1="184" x2="487" y2="184" stroke="#7c5cff" stroke-width="1.4"></line><path d="M487 179.5 l9 4.5 -9 4.5 z" fill="#7c5cff"></path><text x="502" y="188" font-size="11.5" fill="#e7e7ee" xml:space="preserve">callServerTool('validate_form')</text><line x1="472" y1="210" x2="487" y2="210" stroke="#7c5cff" stroke-width="1.4"></line><path d="M487 205.5 l9 4.5 -9 4.5 z" fill="#7c5cff"></path><text x="502" y="214" font-size="11.5" fill="#e7e7ee" xml:space="preserve">callServerTool('create_model')</text><line x1="440" y1="246" x2="440" y2="300" stroke="#4a4a5e" stroke-width="1.5"></line><path d="M436 252 L440 246 L444 252 Z" fill="#7c5cff"></path><path d="M436 294 L440 300 L444 294 Z" fill="#7c5cff"></path><rect x="390.8" y="262" width="98.4" height="22" rx="11" fill="#0c0c12" stroke="#383848"></rect><text x="440" y="277" font-size="10.5" fill="#a78bfa" text-anchor="middle" xml:space="preserve">MCP protocol</text><rect x="24" y="300" width="812" height="150" rx="12" fill="#101019" stroke="#2a2a38"></rect><circle cx="44" cy="326" r="4" fill="#7c5cff"></circle><text x="56" y="330" font-size="12" fill="#c9b8ff" letter-spacing="0.12em" xml:space="preserve">MCP SERVER</text><rect x="44" y="338" width="388" height="96" rx="9" fill="#14141e" stroke="#2a2a38"></rect><rect x="44" y="338" width="3" height="96" rx="1.5" fill="#7c5cff"></rect><text x="66" y="364" font-size="12" fill="#e7e7ee" xml:space="preserve">Tool: create_book</text><text x="64" y="386" font-size="11.5" fill="#a78bfa" xml:space="preserve">→ handleToolCall(args, { apiClient })</text><text x="64" y="408" font-size="11.5" fill="#c7c7d1" xml:space="preserve">→ Returns: { schema, defaults }</text><rect x="452" y="338" width="384" height="96" rx="9" fill="#14141e" stroke="#2a2a38"></rect><rect x="452" y="338" width="3" height="96" rx="1.5" fill="#7ee2c1"></rect><text x="474" y="364" font-size="12" fill="#e7e7ee" xml:space="preserve">Resource: ui://engineer/create-book</text><text x="472" y="386" font-size="11.5" fill="#7ee2c1" xml:space="preserve">→ Returns: single-file HTML</text></svg>