<svg xmlns="http://www.w3.org/2000/svg" viewBox="0 0 820 316" width="820" height="316" font-family="'Geist Mono',ui-monospace,monospace" role="img" aria-label="A class Book extending BaseModel with an attributes block (title, author, status, rating) fans out via derivation into 8 polymorphic tools (list_models, find_records, create/update/delete_model, search_records, get_filters_guide, bulk_action_models), prompt and form validation, 7 schema-driven apps, and auto-generated docs."><rect x="0.5" y="0.5" width="819" height="315" rx="14" fill="#0c0c12" stroke="#23232f"></rect><text x="28" y="32" font-size="11" fill="#6a6a78" letter-spacing="0.08em" xml:space="preserve">QUICKSTART · ONE DECLARATION, ONE FAN-OUT</text><text x="60" y="44" font-size="10.5" fill="#a78bfa" letter-spacing="0.1em" xml:space="preserve">WHAT YOU WRITE</text><rect x="40" y="58" width="300" height="236" rx="11" fill="#14141e" stroke="#2a2a38"></rect><rect x="40" y="58" width="3" height="236" rx="1.5" fill="#7c5cff"></rect><text x="64" y="90" font-size="13" fill="#e7e7ee" xml:space="preserve">class Book</text><text x="64" y="110" font-size="11.5" fill="#a78bfa" xml:space="preserve">  extends BaseModel</text><line x1="64" y1="128" x2="316" y2="128" stroke="#2a2a38" stroke-width="1" stroke-dasharray="2 4"></line><text x="64" y="152" font-size="11.5" fill="#9a9aa8" xml:space="preserve">attributes = {</text><text x="80" y="174" font-size="11.5" fill="#c7c7d1" xml:space="preserve">title,</text><text x="80" y="194" font-size="11.5" fill="#c7c7d1" xml:space="preserve">author,</text><text x="80" y="214" font-size="11.5" fill="#c7c7d1" xml:space="preserve">status,</text><text x="80" y="234" font-size="11.5" fill="#c7c7d1" xml:space="preserve">rating</text><text x="64" y="254" font-size="11.5" fill="#9a9aa8" xml:space="preserve">}</text><text x="64" y="282" font-size="10.5" fill="#6a6a78" xml:space="preserve">the source of truth</text><line x1="348" y1="176" x2="452" y2="176" stroke="#4a4a5e" stroke-width="1.6"></line><path d="M452 170 l11 6 -11 6 z" fill="#7c5cff"></path><rect x="360" y="154" width="80" height="20" rx="10" fill="#0c0c12" stroke="#383848"></rect><text x="400" y="168" font-size="10" fill="#a78bfa" text-anchor="middle" xml:space="preserve">derivation</text><text x="484" y="44" font-size="10.5" fill="#7ee2c1" letter-spacing="0.1em" xml:space="preserve">WHAT THE FRAMEWORK DERIVES</text><rect x="472" y="58" width="308" height="236" rx="11" fill="#101019" stroke="#2a2a38"></rect><rect x="472" y="58" width="3" height="236" rx="1.5" fill="#7ee2c1"></rect><text x="496" y="88" font-size="12.5" fill="#e7e7ee" xml:space="preserve">8 polymorphic tools</text><text x="508" y="110" font-size="11" fill="#7ee2c1" xml:space="preserve">list_models · find_records</text><text x="508" y="129" font-size="11" fill="#7ee2c1" xml:space="preserve">create_ / update_ / delete_model</text><text x="508" y="148" font-size="11" fill="#7ee2c1" xml:space="preserve">search_records · get_filters_guide</text><text x="508" y="167" font-size="11" fill="#7ee2c1" xml:space="preserve">bulk_action_models</text><line x1="496" y1="196" x2="764" y2="196" stroke="#2a2a38" stroke-width="1" stroke-dasharray="2 4"></line><text x="496" y="220" font-size="12" fill="#c7c7d1" xml:space="preserve">Prompt + form validation</text><text x="496" y="244" font-size="12" fill="#c7c7d1" xml:space="preserve">7 schema-driven apps</text><text x="496" y="268" font-size="12" fill="#c7c7d1" xml:space="preserve">Auto-generated docs</text></svg>