<svg xmlns="http://www.w3.org/2000/svg" viewBox="0 0 880 532" width="880" height="532" font-family="'Geist Mono',ui-monospace,monospace" role="img" aria-label="Five filter types map model declaration to MCP wire shape to Rails params. text → &quot;title&quot; → params[:filters][:title]; enum → &quot;status&quot; → [:status]; relation → &quot;author_id&quot; → [:author_id]; date_range and integer_range carry a {from,to} object read via params.dig(:filters, key, :from/:to)."><rect x="0.5" y="0.5" width="879" height="531" rx="14" fill="#0c0c12" stroke="#23232f"></rect><text x="28" y="32" font-size="11" fill="#6a6a78" letter-spacing="0.08em" xml:space="preserve">FILTER TYPES · WIRE MAPPING</text><text x="46" y="52" font-size="10.5" fill="#a78bfa" letter-spacing="0.08em" xml:space="preserve">MODEL DECLARATION</text><text x="322" y="52" font-size="10.5" fill="#7ee2c1" letter-spacing="0.08em" xml:space="preserve">MCP WIRE SHAPE</text><text x="654" y="52" font-size="10.5" fill="#f0c674" letter-spacing="0.08em" xml:space="preserve">RAILS RECEIVES</text><rect x="40" y="70" width="230" height="54" rx="9" fill="#14141e" stroke="#2a2a38"></rect><rect x="40" y="70" width="3" height="54" rx="1.5" fill="#a78bfa"></rect><text x="58" y="94" font-size="12.5" fill="#e7e7ee" xml:space="preserve">text</text><rect x="316" y="70" width="286" height="54" rx="9" fill="#14141e" stroke="#2a2a38"></rect><rect x="316" y="70" width="3" height="54" rx="1.5" fill="#2f6e57"></rect><text x="334" y="94" font-size="11" fill="#7ee2c1" xml:space="preserve">"title":</text><text x="334" y="111" font-size="11" fill="#c7c7d1" xml:space="preserve">"clean architect"</text><rect x="648" y="70" width="200" height="54" rx="9" fill="#14141e" stroke="#2a2a38"></rect><rect x="648" y="70" width="3" height="54" rx="1.5" fill="#f0c674"></rect><text x="666" y="94" font-size="11" fill="#9a9aa8" xml:space="preserve">params[:filters]</text><text x="666" y="111" font-size="11" fill="#f0c674" xml:space="preserve">[:title]</text><line x1="270" y1="97" x2="308" y2="97" stroke="#4a4a5e" stroke-width="1.4"></line><path d="M308 92.5 l9 4.5 -9 4.5 z" fill="#7c5cff"></path><line x1="602" y1="97" x2="640" y2="97" stroke="#4a4a5e" stroke-width="1.4"></line><path d="M640 92.5 l9 4.5 -9 4.5 z" fill="#7c5cff"></path><rect x="40" y="140" width="230" height="72" rx="9" fill="#14141e" stroke="#2a2a38"></rect><rect x="40" y="140" width="3" height="72" rx="1.5" fill="#a78bfa"></rect><text x="58" y="164" font-size="12.5" fill="#e7e7ee" xml:space="preserve">enum</text><text x="58" y="181" font-size="11" fill="#9a9aa8" xml:space="preserve">{ enum: ['draft',</text><text x="58" y="198" font-size="11" fill="#9a9aa8" xml:space="preserve">         'pub'] }</text><rect x="316" y="140" width="286" height="72" rx="9" fill="#14141e" stroke="#2a2a38"></rect><rect x="316" y="140" width="3" height="72" rx="1.5" fill="#2f6e57"></rect><text x="334" y="164" font-size="11" fill="#7ee2c1" xml:space="preserve">"status":</text><text x="334" y="181" font-size="11" fill="#c7c7d1" xml:space="preserve">"published"</text><rect x="648" y="140" width="200" height="72" rx="9" fill="#14141e" stroke="#2a2a38"></rect><rect x="648" y="140" width="3" height="72" rx="1.5" fill="#f0c674"></rect><text x="666" y="164" font-size="11" fill="#9a9aa8" xml:space="preserve">params[:filters]</text><text x="666" y="181" font-size="11" fill="#f0c674" xml:space="preserve">[:status]</text><line x1="270" y1="176" x2="308" y2="176" stroke="#4a4a5e" stroke-width="1.4"></line><path d="M308 171.5 l9 4.5 -9 4.5 z" fill="#7c5cff"></path><line x1="602" y1="176" x2="640" y2="176" stroke="#4a4a5e" stroke-width="1.4"></line><path d="M640 171.5 l9 4.5 -9 4.5 z" fill="#7c5cff"></path><rect x="40" y="228" width="230" height="72" rx="9" fill="#14141e" stroke="#2a2a38"></rect><rect x="40" y="228" width="3" height="72" rx="1.5" fill="#a78bfa"></rect><text x="58" y="252" font-size="12.5" fill="#e7e7ee" xml:space="preserve">relation</text><text x="58" y="269" font-size="11" fill="#9a9aa8" xml:space="preserve">{ relatedModel:</text><text x="58" y="286" font-size="11" fill="#9a9aa8" xml:space="preserve">  'author' }</text><rect x="316" y="228" width="286" height="72" rx="9" fill="#14141e" stroke="#2a2a38"></rect><rect x="316" y="228" width="3" height="72" rx="1.5" fill="#2f6e57"></rect><text x="334" y="252" font-size="11" fill="#7ee2c1" xml:space="preserve">"author_id":</text><text x="334" y="269" font-size="11" fill="#c7c7d1" xml:space="preserve">"7"</text><rect x="648" y="228" width="200" height="72" rx="9" fill="#14141e" stroke="#2a2a38"></rect><rect x="648" y="228" width="3" height="72" rx="1.5" fill="#f0c674"></rect><text x="666" y="252" font-size="11" fill="#9a9aa8" xml:space="preserve">params[:filters]</text><text x="666" y="269" font-size="11" fill="#f0c674" xml:space="preserve">[:author_id]</text><line x1="270" y1="264" x2="308" y2="264" stroke="#4a4a5e" stroke-width="1.4"></line><path d="M308 259.5 l9 4.5 -9 4.5 z" fill="#7c5cff"></path><line x1="602" y1="264" x2="640" y2="264" stroke="#4a4a5e" stroke-width="1.4"></line><path d="M640 259.5 l9 4.5 -9 4.5 z" fill="#7c5cff"></path><rect x="40" y="316" width="230" height="90" rx="9" fill="#14141e" stroke="#2a2a38"></rect><rect x="40" y="316" width="3" height="90" rx="1.5" fill="#8aa6ff"></rect><text x="58" y="340" font-size="12.5" fill="#e7e7ee" xml:space="preserve">date_range</text><rect x="316" y="316" width="286" height="90" rx="9" fill="#14141e" stroke="#2a2a38"></rect><rect x="316" y="316" width="3" height="90" rx="1.5" fill="#2f6e57"></rect><text x="334" y="340" font-size="11" fill="#7ee2c1" xml:space="preserve">"started_at": {</text><text x="334" y="357" font-size="11" fill="#c7c7d1" xml:space="preserve">  "from": "2025-01-01",</text><text x="334" y="374" font-size="11" fill="#c7c7d1" xml:space="preserve">  "to":   "2025-12-31"</text><text x="334" y="391" font-size="11" fill="#7ee2c1" xml:space="preserve">}</text><rect x="648" y="316" width="200" height="90" rx="9" fill="#14141e" stroke="#2a2a38"></rect><rect x="648" y="316" width="3" height="90" rx="1.5" fill="#f0c674"></rect><text x="666" y="340" font-size="11" fill="#9a9aa8" xml:space="preserve">params.dig(</text><text x="666" y="357" font-size="11" fill="#9a9aa8" xml:space="preserve">  :filters,</text><text x="666" y="374" font-size="11" fill="#f0c674" xml:space="preserve">  :started_at,</text><text x="666" y="391" font-size="11" fill="#f0c674" xml:space="preserve">  :from / :to )</text><line x1="270" y1="361" x2="308" y2="361" stroke="#4a4a5e" stroke-width="1.4"></line><path d="M308 356.5 l9 4.5 -9 4.5 z" fill="#7c5cff"></path><line x1="602" y1="361" x2="640" y2="361" stroke="#4a4a5e" stroke-width="1.4"></line><path d="M640 356.5 l9 4.5 -9 4.5 z" fill="#7c5cff"></path><rect x="40" y="422" width="230" height="90" rx="9" fill="#14141e" stroke="#2a2a38"></rect><rect x="40" y="422" width="3" height="90" rx="1.5" fill="#8aa6ff"></rect><text x="58" y="446" font-size="12.5" fill="#e7e7ee" xml:space="preserve">integer_range</text><rect x="316" y="422" width="286" height="90" rx="9" fill="#14141e" stroke="#2a2a38"></rect><rect x="316" y="422" width="3" height="90" rx="1.5" fill="#2f6e57"></rect><text x="334" y="446" font-size="11" fill="#7ee2c1" xml:space="preserve">"duration_minutes": {</text><text x="334" y="463" font-size="11" fill="#c7c7d1" xml:space="preserve">  "from": 30,</text><text x="334" y="480" font-size="11" fill="#c7c7d1" xml:space="preserve">  "to":   120</text><text x="334" y="497" font-size="11" fill="#7ee2c1" xml:space="preserve">}</text><rect x="648" y="422" width="200" height="90" rx="9" fill="#14141e" stroke="#2a2a38"></rect><rect x="648" y="422" width="3" height="90" rx="1.5" fill="#f0c674"></rect><text x="666" y="446" font-size="11" fill="#9a9aa8" xml:space="preserve">params.dig(</text><text x="666" y="463" font-size="11" fill="#9a9aa8" xml:space="preserve">  :filters,</text><text x="666" y="480" font-size="11" fill="#f0c674" xml:space="preserve">  :duration_minutes,</text><text x="666" y="497" font-size="11" fill="#f0c674" xml:space="preserve">  :from / :to )</text><line x1="270" y1="467" x2="308" y2="467" stroke="#4a4a5e" stroke-width="1.4"></line><path d="M308 462.5 l9 4.5 -9 4.5 z" fill="#7c5cff"></path><line x1="602" y1="467" x2="640" y2="467" stroke="#4a4a5e" stroke-width="1.4"></line><path d="M640 462.5 l9 4.5 -9 4.5 z" fill="#7c5cff"></path></svg>