<svg xmlns="http://www.w3.org/2000/svg" viewBox="0 0 840 468" width="840" height="468" font-family="'Geist Mono',ui-monospace,monospace" role="img" aria-label="Sections map to field groups: the basics section maps to the basics group, classification to classification, and the timing section fans out to two groups, timing-when (occurred_at) and timing-duration (duration_min)."><rect x="0.5" y="0.5" width="839" height="467" rx="14" fill="#0c0c12" stroke="#23232f"></rect><text x="28" y="32" font-size="11" fill="#6a6a78" letter-spacing="0.08em" xml:space="preserve">SECTIONS → FIELD GROUPS</text><text x="50" y="52" font-size="11" fill="#a78bfa" letter-spacing="0.1em" xml:space="preserve">SECTIONS</text><text x="150" y="52" font-size="10.5" fill="#6a6a78" xml:space="preserve">user-facing flow</text><text x="540" y="52" font-size="11" fill="#7ee2c1" letter-spacing="0.1em" xml:space="preserve">FIELD GROUPS</text><text x="672" y="52" font-size="10.5" fill="#6a6a78" xml:space="preserve">validation</text><rect x="40" y="72" width="300" height="88" rx="9" fill="#14141e" stroke="#2a2a38"></rect><rect x="40" y="72" width="3" height="88" rx="1.5" fill="#a78bfa"></rect><text x="58" y="96" font-size="12.5" fill="#e7e7ee" xml:space="preserve">basics</text><text x="58" y="116" font-size="11" fill="#9a9aa8" xml:space="preserve">title : "Basics"</text><text x="58" y="134" font-size="11" fill="#9a9aa8" xml:space="preserve">required: true</text><rect x="480" y="72" width="300" height="88" rx="9" fill="#101019" stroke="#2a2a38"></rect><rect x="480" y="72" width="3" height="88" rx="1.5" fill="#7ee2c1"></rect><text x="498" y="96" font-size="12.5" fill="#7ee2c1" xml:space="preserve">basics</text><text x="498" y="116" font-size="11" fill="#c7c7d1" xml:space="preserve">fields: ['title', 'desc']</text><text x="498" y="134" font-size="11" fill="#9a9aa8" xml:space="preserve">required: true</text><line x1="360" y1="116" x2="448" y2="116" stroke="#4a4a5e" stroke-width="1.4"></line><path d="M448 111.5 l9 4.5 -9 4.5 z" fill="#7c5cff"></path><text x="404" y="108" font-size="9.5" fill="#6a6a78" text-anchor="middle" xml:space="preserve">groups: basics</text><rect x="40" y="176" width="300" height="88" rx="9" fill="#14141e" stroke="#2a2a38"></rect><rect x="40" y="176" width="3" height="88" rx="1.5" fill="#a78bfa"></rect><text x="58" y="200" font-size="12.5" fill="#e7e7ee" xml:space="preserve">classification</text><text x="58" y="220" font-size="11" fill="#9a9aa8" xml:space="preserve">title : "Classify"</text><text x="58" y="238" font-size="11" fill="#9a9aa8" xml:space="preserve">required: true</text><rect x="480" y="176" width="300" height="88" rx="9" fill="#101019" stroke="#2a2a38"></rect><rect x="480" y="176" width="3" height="88" rx="1.5" fill="#7ee2c1"></rect><text x="498" y="200" font-size="12.5" fill="#7ee2c1" xml:space="preserve">classification</text><text x="498" y="220" font-size="11" fill="#c7c7d1" xml:space="preserve">fields: ['theme_id',</text><text x="498" y="238" font-size="11" fill="#c7c7d1" xml:space="preserve">         'category_id']</text><line x1="360" y1="220" x2="448" y2="220" stroke="#4a4a5e" stroke-width="1.4"></line><path d="M448 215.5 l9 4.5 -9 4.5 z" fill="#7c5cff"></path><text x="404" y="212" font-size="9.5" fill="#6a6a78" text-anchor="middle" xml:space="preserve">groups: classification</text><rect x="40" y="288" width="300" height="88" rx="9" fill="#14141e" stroke="#2a2a38"></rect><rect x="40" y="288" width="3" height="88" rx="1.5" fill="#f0c674"></rect><text x="58" y="312" font-size="12.5" fill="#e7e7ee" xml:space="preserve">timing</text><text x="58" y="332" font-size="11" fill="#9a9aa8" xml:space="preserve">title : "Timing"</text><text x="58" y="350" font-size="11" fill="#9a9aa8" xml:space="preserve">required: false</text><rect x="480" y="288" width="300" height="70" rx="9" fill="#101019" stroke="#2a2a38"></rect><rect x="480" y="288" width="3" height="70" rx="1.5" fill="#7ee2c1"></rect><text x="498" y="312" font-size="12.5" fill="#7ee2c1" xml:space="preserve">timing-when</text><text x="498" y="332" font-size="11" fill="#c7c7d1" xml:space="preserve">fields: ['occurred_at']</text><rect x="480" y="372" width="300" height="70" rx="9" fill="#101019" stroke="#2a2a38"></rect><rect x="480" y="372" width="3" height="70" rx="1.5" fill="#7ee2c1"></rect><text x="498" y="396" font-size="12.5" fill="#7ee2c1" xml:space="preserve">timing-duration</text><text x="498" y="416" font-size="11" fill="#c7c7d1" xml:space="preserve">fields: ['duration_min']</text><line x1="360" y1="332" x2="404" y2="332" stroke="#4a4a5e" stroke-width="1.4"></line><line x1="404" y1="332" x2="404" y2="407" stroke="#4a4a5e" stroke-width="1.4"></line><line x1="404" y1="323" x2="448" y2="323" stroke="#4a4a5e" stroke-width="1.4"></line><path d="M448 318.5 l9 4.5 -9 4.5 z" fill="#7c5cff"></path><line x1="404" y1="407" x2="448" y2="407" stroke="#4a4a5e" stroke-width="1.4"></line><path d="M448 402.5 l9 4.5 -9 4.5 z" fill="#7c5cff"></path><text x="404" y="360" font-size="9.5" fill="#6a6a78" text-anchor="middle" xml:space="preserve">groups: 2</text></svg>