<svg xmlns="http://www.w3.org/2000/svg" viewBox="0 0 720 480" width="720" height="480" font-family="'Geist Mono',ui-monospace,monospace" role="img" aria-label="The MCP tool layer delegates to ModelService and SearchService; ModelService composes EndpointResolver and the shared Convention, SearchService composes SearchAdapter and Convention; all bottom out at a single HTTP ApiClient."><rect x="0.5" y="0.5" width="719" height="479" rx="14" fill="#0c0c12" stroke="#23232f"></rect><text x="28" y="32" font-size="11" fill="#6a6a78" letter-spacing="0.08em" xml:space="preserve">SERVICE LAYER · COMPOSITION</text><rect x="40" y="56" width="640" height="72" rx="10" fill="#101019" stroke="#2a2a38"></rect><rect x="40" y="56" width="3" height="72" rx="1.5" fill="#7c5cff"></rect><text x="60" y="84" font-size="13" fill="#e7e7ee" xml:space="preserve">MCP Tool Layer</text><text x="60" y="106" font-size="11" fill="#9a9aa8" xml:space="preserve">input validation · response formatting · vector storage · usage rules</text><path d="M240 128 C 240 148, 220 148, 220 168" fill="none" stroke="#4a4a5e" stroke-width="1.4"></path><path d="M440 128 C 440 148, 500 148, 500 168" fill="none" stroke="#4a4a5e" stroke-width="1.4"></path><rect x="120" y="168" width="200" height="60" rx="9" fill="#14141e" stroke="#2a2a38"></rect><text x="220" y="196" font-size="12.5" fill="#a78bfa" text-anchor="middle" xml:space="preserve">ModelService</text><text x="220" y="213" font-size="10.5" fill="#6a6a78" text-anchor="middle" xml:space="preserve">CRUD ops</text><rect x="400" y="168" width="200" height="60" rx="9" fill="#14141e" stroke="#2a2a38"></rect><text x="500" y="196" font-size="12.5" fill="#a78bfa" text-anchor="middle" xml:space="preserve">SearchService</text><text x="500" y="213" font-size="10.5" fill="#6a6a78" text-anchor="middle" xml:space="preserve">search / lookup</text><rect x="56" y="288" width="150" height="60" rx="9" fill="#14141e" stroke="#2a2a38"></rect><text x="131" y="316" font-size="11.5" fill="#e7e7ee" text-anchor="middle" xml:space="preserve">EndpointResolver</text><text x="131" y="333" font-size="10.5" fill="#6a6a78" text-anchor="middle" xml:space="preserve">URLs</text><rect x="286" y="288" width="150" height="60" rx="9" fill="#14141e" stroke="#4a4a5e"></rect><text x="361" y="316" font-size="11.5" fill="#e7e7ee" text-anchor="middle" xml:space="preserve">Convention</text><text x="361" y="333" font-size="10.5" fill="#6a6a78" text-anchor="middle" xml:space="preserve">payload / response</text><rect x="478" y="288" width="170" height="60" rx="9" fill="#14141e" stroke="#2a2a38"></rect><text x="563" y="316" font-size="11.5" fill="#e7e7ee" text-anchor="middle" xml:space="preserve">SearchAdapter</text><text x="563" y="333" font-size="10.5" fill="#6a6a78" text-anchor="middle" xml:space="preserve">query body building</text><path d="M180 228 C 180 258, 131 258, 131 288" fill="none" stroke="#4a4a5e" stroke-width="1.4"></path><path d="M240 228 C 240 258, 340 258, 340 288" fill="none" stroke="#4a4a5e" stroke-width="1.4"></path><path d="M500 228 C 500 258, 553 258, 553 288" fill="none" stroke="#4a4a5e" stroke-width="1.4"></path><path d="M520 228 C 520 258, 380 258, 380 288" fill="none" stroke="#4a4a5e" stroke-width="1.4"></path><text x="361" y="272" font-size="9.5" fill="#6a6a78" text-anchor="middle" letter-spacing="0.1em" xml:space="preserve">shared</text><rect x="280" y="400" width="160" height="60" rx="9" fill="#14141e" stroke="#2a2a38"></rect><text x="360" y="428" font-size="12.5" fill="#7ee2c1" text-anchor="middle" xml:space="preserve">ApiClient</text><text x="360" y="445" font-size="10.5" fill="#6a6a78" text-anchor="middle" xml:space="preserve">HTTP</text><path d="M131 348 C 131 374, 330 374, 330 400" fill="none" stroke="#4a4a5e" stroke-width="1.4"></path><path d="M361 348 C 361 374, 360 374, 360 400" fill="none" stroke="#4a4a5e" stroke-width="1.4"></path><path d="M563 348 C 563 374, 390 374, 390 400" fill="none" stroke="#4a4a5e" stroke-width="1.4"></path></svg>