<svg xmlns="http://www.w3.org/2000/svg" viewBox="0 0 760 340" width="760" height="340" font-family="'Geist Mono',ui-monospace,monospace" role="img" aria-label="BaseTool from mcp-rune is extended by generic CRUD tools and by your ServerBaseTool, which in turn is extended by your custom tools."><rect x="0.5" y="0.5" width="759" height="339" rx="14" fill="#0c0c12" stroke="#23232f"></rect><text x="28" y="32" font-size="11" fill="#6a6a78" letter-spacing="0.08em" xml:space="preserve">TOOL · INHERITANCE CHAIN</text><rect x="40" y="56" width="300" height="42" rx="9" fill="#14141e" stroke="#2a2a38"></rect><rect x="40" y="56" width="3" height="42" rx="1.5" fill="#a78bfa"></rect><text x="60" y="76" font-size="12.5" fill="#a78bfa" xml:space="preserve">BaseTool</text><text x="60" y="90" font-size="10.5" fill="#6a6a78" xml:space="preserve">root base · mcp-rune</text><line x1="70" y1="98" x2="70" y2="210" stroke="#4a4a5e" stroke-width="1.4"></line><line x1="70" y1="150" x2="120" y2="150" stroke="#4a4a5e" stroke-width="1.4"></line><line x1="70" y1="210" x2="120" y2="210" stroke="#4a4a5e" stroke-width="1.4"></line><rect x="120" y="129" width="420" height="42" rx="9" fill="#14141e" stroke="#2a2a38"></rect><rect x="120" y="129" width="3" height="42" rx="1.5" fill="#7ee2c1"></rect><text x="140" y="149" font-size="12.5" fill="#e7e7ee" xml:space="preserve">data/*.ts</text><text x="140" y="163" font-size="10.5" fill="#6a6a78" xml:space="preserve">generic CRUD tools · from mcp-rune</text><rect x="120" y="189" width="420" height="42" rx="9" fill="#14141e" stroke="#2a2a38"></rect><rect x="120" y="189" width="3" height="42" rx="1.5" fill="#f0c674"></rect><text x="140" y="209" font-size="12.5" fill="#f0c674" xml:space="preserve">ServerBaseTool</text><text x="140" y="223" font-size="10.5" fill="#6a6a78" xml:space="preserve">your server</text><line x1="150" y1="231" x2="150" y2="290" stroke="#4a4a5e" stroke-width="1.4"></line><line x1="150" y1="290" x2="200" y2="290" stroke="#4a4a5e" stroke-width="1.4"></line><rect x="200" y="269" width="400" height="42" rx="9" fill="#14141e" stroke="#2a2a38"></rect><rect x="200" y="269" width="3" height="42" rx="1.5" fill="#7c5cff"></rect><text x="220" y="289" font-size="12.5" fill="#e7e7ee" xml:space="preserve">{custom}-tool.js</text><text x="220" y="303" font-size="10.5" fill="#6a6a78" xml:space="preserve">server-specific tools</text></svg>